Coordinates
version=1
nRows=84
nColumns=11
inDegrees=no

Units are S.I. units (second, meters, Newtons, ...)
If the header above contains a line with 'inDegrees', this indicates whether rotational values are in degrees (yes) or radians (no).

endheader
time	pelvis_tilt	pelvis_tx	pelvis_ty	hip_flexion_r	knee_angle_r	ankle_angle_r	hip_flexion_l	knee_angle_l	ankle_angle_l	lumbar_extension
315.01	0.0617752	0.22706	0.918973	-0.196996	-0.266857	0.323109	0.210876	-0.0228908	0.0121574	0
315.02	0.0633555	0.228137	0.918059	-0.20746	-0.271354	0.330843	0.20724	-0.0145185	0.0124513	0
315.03	0.0629174	0.22867	0.917022	-0.212889	-0.279206	0.33793	0.210329	-0.0175467	0.0115052	0
315.04	0.0617687	0.229004	0.915964	-0.216887	-0.288998	0.344556	0.21548	-0.0294635	0.00521558	0
315.05	0.0629184	0.230392	0.915184	-0.22599	-0.29672	0.350088	0.216505	-0.0456718	-0.00868142	0
315.06	0.0643768	0.231853	0.914351	-0.234827	-0.305394	0.353494	0.218259	-0.0674481	-0.0242468	0
315.07	0.0641326	0.232832	0.913136	-0.237857	-0.319966	0.359967	0.22186	-0.087492	-0.0424586	0
315.08	0.0661784	0.233169	0.912089	-0.241111	-0.341465	0.368884	0.222005	-0.10594	-0.0565467	0
315.09	0.0628747	0.23432	0.910871	-0.235657	-0.363788	0.371768	0.231837	-0.126281	-0.0698927	0
315.1	0.0634551	0.234958	0.910139	-0.235276	-0.389353	0.371417	0.23478	-0.147786	-0.0856727	0
315.11	0.0894956	0.239875	0.910774	-0.261852	-0.425617	0.370956	0.208835	-0.178541	-0.100628	0
315.12	0.0668761	0.23892	0.908982	-0.232027	-0.444663	0.363741	0.236995	-0.192231	-0.0996693	0
315.13	0.0886432	0.243043	0.909649	-0.246418	-0.492984	0.356046	0.220337	-0.234215	-0.0810396	0
315.14	0.0945155	0.244435	0.909814	-0.243069	-0.53387	0.343276	0.218957	-0.26631	-0.0596823	0
315.15	0.0947983	0.24515	0.90962	-0.227913	-0.580551	0.324703	0.223665	-0.294279	-0.0430002	0
315.16	0.0941212	0.245781	0.909545	-0.206807	-0.633632	0.299546	0.224137	-0.313338	-0.0265893	0
315.17	0.0691391	0.24323	0.90886	-0.156098	-0.679262	0.261823	0.248643	-0.318031	-0.0110859	0
315.18	0.0516164	0.240659	0.908257	-0.103098	-0.744611	0.219472	0.270709	-0.333855	-0.00148965	0
315.19	0.0602409	0.242685	0.908917	-0.0870935	-0.803209	0.183592	0.258383	-0.350706	0.0143529	0
315.2	0.0603947	0.24316	0.909295	-0.0585309	-0.861554	0.147724	0.251339	-0.356196	0.0303535	0
315.21	0.0568676	0.242014	0.909631	-0.022815	-0.922123	0.109798	0.247699	-0.359107	0.0411931	0
315.22	0.0798783	0.24533	0.911071	-0.0215899	-0.981333	0.0726927	0.214562	-0.372769	0.053452	0
315.23	0.0465761	0.240133	0.910013	0.0524067	-1.03313	0.0391319	0.247231	-0.369022	0.0627389	0
315.24	0.0543198	0.241323	0.911114	0.0680217	-1.07383	0.0226665	0.232603	-0.378012	0.0737629	0
315.25	0.0561558	0.241486	0.912167	0.0915788	-1.11196	0.026273	0.222336	-0.380625	0.082042	0
315.26	0.0546538	0.240908	0.913277	0.120297	-1.14874	0.0439852	0.215328	-0.381726	0.0883203	0
315.27	0.0534173	0.24025	0.914533	0.148134	-1.17923	0.0648141	0.210483	-0.386337	0.0951763	0
315.28	0.0523576	0.239382	0.915807	0.174852	-1.20317	0.0817809	0.205461	-0.390977	0.100389	0
315.29	0.0522087	0.23878	0.917332	0.198172	-1.21901	0.0920327	0.194251	-0.386299	0.105739	0
315.3	0.053134	0.238667	0.919267	0.217737	-1.22637	0.100199	0.178402	-0.376245	0.112207	0
315.31	0.052942	0.238167	0.920974	0.23863	-1.22943	0.108353	0.165935	-0.369473	0.117149	0
315.32	0.0519037	0.237231	0.922324	0.260661	-1.22949	0.117717	0.154535	-0.362432	0.120067	0
315.33	0.0497456	0.235827	0.923643	0.282954	-1.22412	0.125723	0.146793	-0.358743	0.119894	0
315.34	0.0477524	0.234426	0.925132	0.303095	-1.21184	0.129423	0.13962	-0.35647	0.121336	0
315.35	0.0467939	0.233684	0.926538	0.320017	-1.19464	0.133376	0.127322	-0.34816	0.129202	0
315.36	0.0305059	0.229088	0.926898	0.358919	-1.17931	0.14179	0.133448	-0.335357	0.130268	0
315.37	0.0280757	0.22813	0.927911	0.375298	-1.15215	0.149997	0.125829	-0.328581	0.131797	0
315.38	0.0410233	0.230008	0.930005	0.364275	-1.11255	0.15759	0.097137	-0.322799	0.139992	0
315.39	0.0288404	0.227074	0.929978	0.390268	-1.0771	0.163197	0.101387	-0.316132	0.14618	0
315.4	0.0649811	0.232492	0.93288	0.346563	-1.03474	0.159202	0.0482613	-0.325915	0.153576	0
315.41	0.0384168	0.227795	0.932561	0.379106	-0.974445	0.157936	0.0598676	-0.29687	0.153765	0
315.42	0.0337144	0.22638	0.932444	0.386271	-0.921381	0.149786	0.0529683	-0.289654	0.159105	0
315.43	0.0578065	0.22981	0.933917	0.354327	-0.868607	0.13212	0.015846	-0.300227	0.168319	0
315.44	0.0598212	0.229599	0.934207	0.347683	-0.807244	0.119104	0.00464637	-0.301681	0.179045	0
315.45	0.0304879	0.224382	0.932513	0.378778	-0.737586	0.106585	0.0297099	-0.289602	0.18692	0
315.46	0.0547865	0.227567	0.933427	0.342573	-0.680788	0.0900385	-0.00533292	-0.304171	0.197034	0
315.47	0.0263066	0.222866	0.931473	0.364998	-0.601826	0.0804667	0.014668	-0.287332	0.202929	0
315.48	0.0222448	0.222112	0.930456	0.360656	-0.535384	0.0677128	0.013024	-0.292673	0.213247	0
315.49	0.0228829	0.222252	0.929562	0.349705	-0.469666	0.0579032	0.00738406	-0.302115	0.226848	0
315.5	0.0223698	0.222071	0.928405	0.338321	-0.402707	0.0512982	0.0012519	-0.308271	0.23904	0
315.51	0.0215976	0.222059	0.927107	0.326719	-0.337326	0.0448203	-0.00590625	-0.31175	0.251342	0
315.52	0.0226235	0.222231	0.925835	0.312833	-0.277255	0.0397932	-0.0173312	-0.314035	0.267489	0
315.53	0.022389	0.22274	0.924419	0.302613	-0.224125	0.0381148	-0.0266383	-0.316751	0.279514	0
315.54	0.0194305	0.222564	0.922707	0.297264	-0.177808	0.0410684	-0.0310356	-0.321413	0.292014	0
315.55	0.0225184	0.224011	0.921345	0.287685	-0.141326	0.0465057	-0.0416398	-0.327684	0.306928	0
315.56	0.023437	0.224704	0.920069	0.281123	-0.1114	0.0524414	-0.0514115	-0.33159	0.321695	0
315.57	0.027369	0.225285	0.918931	0.272448	-0.0915285	0.0592441	-0.0626351	-0.34222	0.333827	0
315.58	0.0239536	0.225565	0.917431	0.274629	-0.0788537	0.0615276	-0.064513	-0.34974	0.344898	0
315.59	0.0237206	0.226178	0.916312	0.274724	-0.079396	0.0600423	-0.0705125	-0.357731	0.355494	0
315.6	0.0261247	0.226857	0.915434	0.272913	-0.0898266	0.0530047	-0.078301	-0.369644	0.363926	0
315.61	0.0262629	0.227554	0.914321	0.274805	-0.10541	0.0377097	-0.0816735	-0.384204	0.371982	0
315.62	0.029087	0.228831	0.913432	0.27423	-0.125381	0.0192579	-0.0896471	-0.396908	0.381643	0
315.63	0.031982	0.23002	0.91276	0.273659	-0.146388	0.00123157	-0.0973359	-0.409819	0.390917	0
315.64	0.0313366	0.230612	0.911903	0.277423	-0.164849	-0.013308	-0.0974258	-0.427906	0.394935	0
315.65	0.0327928	0.231349	0.91095	0.278603	-0.183044	-0.0247863	-0.0968825	-0.453169	0.396805	0
315.66	0.0367839	0.23221	0.910272	0.275899	-0.199889	-0.0430593	-0.0977282	-0.482527	0.398287	0
315.67	0.0386666	0.233094	0.909493	0.275262	-0.214997	-0.0641876	-0.0915696	-0.519045	0.398439	0
315.68	0.0665956	0.237866	0.910292	0.245125	-0.239999	-0.0776753	-0.11253	-0.570398	0.393913	0
315.69	0.0456079	0.236092	0.909094	0.269754	-0.249764	-0.0733722	-0.078298	-0.600159	0.379698	0
315.7	0.0728533	0.240331	0.910073	0.244199	-0.285991	-0.0583929	-0.0909664	-0.661325	0.359822	0
315.71	0.0783479	0.241668	0.910318	0.23912	-0.307817	-0.042763	-0.077595	-0.71428	0.331909	0
315.72	0.0539224	0.238723	0.909169	0.268097	-0.318101	-0.0308708	-0.0243402	-0.763853	0.293358	0
315.73	0.0483044	0.23758	0.908582	0.276808	-0.337314	-0.0215381	0.0126418	-0.826912	0.247981	0
315.74	0.0479946	0.237715	0.908477	0.276103	-0.352081	-0.00789701	0.0440029	-0.888081	0.195569	0
315.75	0.0477856	0.237501	0.908641	0.271273	-0.362727	0.00783215	0.0736561	-0.945209	0.140067	0
315.76	0.0757877	0.242429	0.910318	0.234512	-0.382163	0.0220843	0.0658639	-0.998938	0.0889556	0
315.77	0.0548479	0.239517	0.909938	0.252398	-0.381765	0.0352663	0.118568	-1.04111	0.0424924	0
315.78	0.0397923	0.23619	0.908719	0.271525	-0.396927	0.046417	0.17196	-1.09714	-0.0045525	0
315.79	0.0531658	0.238679	0.909587	0.25054	-0.408979	0.0672931	0.177771	-1.13383	-0.048978	0
315.8	0.0564523	0.239107	0.910157	0.240184	-0.415981	0.0832607	0.196303	-1.16801	-0.0932502	0
315.81	0.0570218	0.238665	0.910745	0.234451	-0.424184	0.0954336	0.218303	-1.19905	-0.134954	0
315.82	0.0573824	0.238217	0.911549	0.228385	-0.430701	0.104614	0.238754	-1.22595	-0.162262	0
315.83	0.0580271	0.237939	0.912605	0.221089	-0.436418	0.110739	0.256891	-1.24966	-0.159301	0
315.84	0.0582016	0.237737	0.913389	0.212225	-0.438855	0.124888	0.27474	-1.27194	-0.128585	0
